<svg xmlns="http://www.w3.org/2000/svg" viewBox="0 0 1200 900" role="img" aria-labelledby="title desc">
  <title id="title">Yombal partner fallback</title>
  <desc id="desc">Branded atelier-inspired placeholder image for partner profiles without photos.</desc>
  <defs>
    <linearGradient id="bg" x1="0%" x2="100%" y1="0%" y2="100%">
      <stop offset="0%" stop-color="#081e3c"/>
      <stop offset="56%" stop-color="#0d2454"/>
      <stop offset="100%" stop-color="#1f4d9f"/>
    </linearGradient>
    <linearGradient id="metal" x1="0%" x2="100%" y1="0%" y2="100%">
      <stop offset="0%" stop-color="#f3f7fb"/>
      <stop offset="100%" stop-color="#b7d4ea"/>
    </linearGradient>
    <radialGradient id="glow" cx="50%" cy="50%" r="70%">
      <stop offset="0%" stop-color="#18c2d4" stop-opacity="0.32"/>
      <stop offset="100%" stop-color="#18c2d4" stop-opacity="0"/>
    </radialGradient>
  </defs>
  <rect width="1200" height="900" fill="url(#bg)"/>
  <rect width="1200" height="900" fill="url(#glow)"/>
  <circle cx="900" cy="188" r="220" fill="#ffffff" opacity="0.05"/>
  <circle cx="198" cy="756" r="200" fill="#f0a534" opacity="0.14"/>
  <g transform="translate(318 140)">
    <circle cx="276" cy="218" r="188" fill="none" stroke="url(#metal)" stroke-width="18" opacity="0.95"/>
    <path d="M452 86c-48 26-86 70-110 124-24 55-36 123-36 205 85-38 143-88 174-150 26-51 35-112 27-179-8-1-20 0-55 0Z" fill="url(#metal)" opacity="0.96"/>
    <path d="M257 154c-64 28-114 82-142 152 50 36 95 77 132 123-1-121 7-213 25-275-2 0-7-1-15-1Z" fill="url(#metal)" opacity="0.9"/>
  </g>
  <g>
    <rect x="90" y="668" width="1020" height="1.5" fill="#ffffff" opacity="0.16"/>
    <text x="96" y="760" font-family="Avenir Next, Segoe UI, Arial, sans-serif" font-size="48" font-weight="700" fill="#ffffff" letter-spacing="8">YOMBAL</text>
    <text x="96" y="820" font-family="Avenir Next, Segoe UI, Arial, sans-serif" font-size="28" fill="#dbe9f8" opacity="0.82" letter-spacing="3">PHOTO PROFIL PARTENAIRE A AJOUTER</text>
  </g>
</svg>
